<svg xmlns="http://www.w3.org/2000/svg" viewBox="0 0 512 512" fill="none">
  <rect width="512" height="512" rx="64" fill="#181617"/>
  <path d="M89.5 354.5c-1 0-4-1-5-3 0 0-14-42-50-144-.74-2.11-.61-6.85 1-8s4.24-1 6 0c2.94 1.6 3.73 5.29 4 6 3 8 27 58 56 58 18.74 0 54-44 69-102a5.2 5.2 0 0 1 3-3 5.68 5.68 0 0 1 5 1c2.57 1.91 2.92 5.45 3 6 1.18 8.55 37 98.41 75 97 27-1 55-55 66-101a5.46 5.46 0 0 1 3-3 5.3 5.3 0 0 1 4 0c2.11 1 2.83 3.52 3 4 15.16 41.36 35.77 96.61 72 101 33 4 65-65.3 66-67a5.57 5.57 0 0 1 2-2c1.51-.85 3.78-1.06 5 0a4.16 4.16 0 0 1 1 4c-37 112-52 153-52 153-.34.27-1.29 3-4 3Z" fill="#a07b50"/>
</svg>