<svg viewBox="0 0 107 97" fill="none" xmlns="http://www.w3.org/2000/svg"><mask id="a" fill="#fff"><path d="M43.35 42.755c-7.085 0-12.849 5.764-12.849 12.848 0 6.475 4.804 10.342 12.849 10.342s12.848-3.866 12.848-10.342c0-7.084-5.764-12.848-12.848-12.848Zm0 20.055c-3.628 0-9.715-.936-9.715-7.207 0-5.357 4.358-9.715 9.715-9.715 5.356 0 9.715 4.358 9.715 9.715 0 6.271-6.087 7.207-9.715 7.207Zm-6.268-32.59c-3.202 0-5.327 3.96-5.327 6.58a5.333 5.333 0 0 0 5.327 5.328 5.333 5.333 0 0 0 5.328-5.327c0-2.62-2.125-6.581-5.328-6.581Zm0 8.774A2.196 2.196 0 0 1 34.89 36.8c0-1.482 1.25-3.447 2.193-3.447.944 0 2.194 1.965 2.194 3.447 0 1.21-.984 2.194-2.194 2.194Zm12.535-8.774c-3.202 0-5.327 3.96-5.327 6.58a5.333 5.333 0 0 0 5.327 5.328 5.333 5.333 0 0 0 5.328-5.327c0-2.62-2.125-6.581-5.328-6.581Zm0 8.774a2.196 2.196 0 0 1-2.193-2.194c0-1.482 1.25-3.447 2.193-3.447.943 0 2.194 1.965 2.194 3.447 0 1.21-.984 2.194-2.194 2.194Zm10.028-1.254c-3.203 0-5.327 3.962-5.327 6.582a5.333 5.333 0 0 0 5.327 5.327 5.333 5.333 0 0 0 5.327-5.327c0-2.62-2.124-6.581-5.327-6.581Zm0 8.775a2.196 2.196 0 0 1-2.194-2.194c0-1.482 1.251-3.447 2.194-3.447.943 0 2.194 1.965 2.194 3.447 0 1.21-.984 2.194-2.194 2.194ZM27.054 37.74c-3.202 0-5.327 3.962-5.327 6.582a5.333 5.333 0 0 0 5.327 5.327 5.333 5.333 0 0 0 5.328-5.327c0-2.62-2.125-6.581-5.328-6.581Zm0 8.775a2.196 2.196 0 0 1-2.193-2.194c0-1.482 1.25-3.447 2.193-3.447.944 0 2.194 1.965 2.194 3.447 0 1.21-.984 2.194-2.194 2.194Z"/><path d="M46.693 52.783h-1.776v-1.776a1.567 1.567 0 1 0-3.134 0v1.776h-1.776a1.567 1.567 0 1 0 0 3.133h1.776v1.776a1.567 1.567 0 1 0 3.134 0v-1.776h1.776a1.567 1.567 0 1 0 0-3.133Z"/><path d="M62.197 3.268A47.623 47.623 0 0 0 47.528.972c-12.695 0-24.63 4.944-33.608 13.92C4.944 23.87 0 35.806 0 48.5c0 12.695 4.944 24.63 13.92 33.608 8.978 8.977 20.913 13.92 33.608 13.92a1.567 1.567 0 1 0 0-3.133c-11.858 0-23.006-4.618-31.391-13.003C7.752 71.507 3.134 60.358 3.134 48.5s4.618-23.006 13.003-31.392C24.522 8.723 35.67 4.106 47.528 4.106c4.692 0 9.302.721 13.705 2.144a1.581 1.581 0 0 0 1.973-1.009 1.582 1.582 0 0 0-1.01-1.973Z"/><path d="m106.612 43.927-5.502-6.289a1.583 1.583 0 0 0-2.211-.147l-4.383 3.834a47.533 47.533 0 0 0-13.38-26.433 47.661 47.661 0 0 0-11.538-8.51 1.581 1.581 0 0 0-2.115.657 1.582 1.582 0 0 0 .657 2.116 44.546 44.546 0 0 1 10.78 7.953c7.486 7.486 11.923 16.992 12.83 27.488.108 1.252 1.645 1.874 2.593 1.044l5.439-4.76 3.439 3.931L91.03 55.48c-.972.85-2.467.85-3.439 0L75.4 44.81l3.439-3.93 5 4.375c1.057.925 2.752.03 2.588-1.362C84.108 24.188 67.385 9.328 47.528 9.328c-21.6 0-39.171 17.573-39.171 39.172 0 21.6 17.572 39.171 39.171 39.171a1.567 1.567 0 1 0 0-3.133C27.657 84.538 11.49 68.37 11.49 48.5c0-19.872 16.167-36.038 36.038-36.038 16.792 0 31.149 11.551 35.016 27.497l-2.82-2.468a1.583 1.583 0 0 0-2.211.147l-5.503 6.29a1.567 1.567 0 0 0 .147 2.21l13.371 11.7c2.139 1.87 5.428 1.87 7.566 0l13.371-11.7c.651-.57.717-1.56.147-2.21Z"/><path d="M73.433 90.387h-11.63C66.983 86.532 75 79.362 75 71.898c0-5.471-4.452-9.923-9.924-9.923-5.472 0-9.923 4.452-9.923 9.923a1.567 1.567 0 1 0 3.133 0 6.797 6.797 0 0 1 6.79-6.79 6.797 6.797 0 0 1 6.79 6.79c0 9.023-15.794 18.617-15.953 18.712a1.582 1.582 0 0 0-.687 1.818 1.582 1.582 0 0 0 1.493 1.093h16.713a1.567 1.567 0 0 0 0-3.134Zm25.07-6.685h-3.447v-20.16c0-.642-.407-1.234-1.006-1.464a1.582 1.582 0 0 0-1.802.508L75.534 84.313c-.777 1.011-.031 2.522 1.242 2.522h15.147v5.119a1.567 1.567 0 1 0 3.133 0v-5.118h3.447a1.566 1.566 0 1 0 0-3.134Zm-6.58 0H79.957L91.923 68.15v15.553Z"/></mask><path d="M43.35 42.755c-7.085 0-12.849 5.764-12.849 12.848 0 6.475 4.804 10.342 12.849 10.342s12.848-3.866 12.848-10.342c0-7.084-5.764-12.848-12.848-12.848Zm0 20.055c-3.628 0-9.715-.936-9.715-7.207 0-5.357 4.358-9.715 9.715-9.715 5.356 0 9.715 4.358 9.715 9.715 0 6.271-6.087 7.207-9.715 7.207Zm-6.268-32.59c-3.202 0-5.327 3.96-5.327 6.58a5.333 5.333 0 0 0 5.327 5.328 5.333 5.333 0 0 0 5.328-5.327c0-2.62-2.125-6.581-5.328-6.581Zm0 8.774A2.196 2.196 0 0 1 34.89 36.8c0-1.482 1.25-3.447 2.193-3.447.944 0 2.194 1.965 2.194 3.447 0 1.21-.984 2.194-2.194 2.194Zm12.535-8.774c-3.202 0-5.327 3.96-5.327 6.58a5.333 5.333 0 0 0 5.327 5.328 5.333 5.333 0 0 0 5.328-5.327c0-2.62-2.125-6.581-5.328-6.581Zm0 8.774a2.196 2.196 0 0 1-2.193-2.194c0-1.482 1.25-3.447 2.193-3.447.943 0 2.194 1.965 2.194 3.447 0 1.21-.984 2.194-2.194 2.194Zm10.028-1.254c-3.203 0-5.327 3.962-5.327 6.582a5.333 5.333 0 0 0 5.327 5.327 5.333 5.333 0 0 0 5.327-5.327c0-2.62-2.124-6.581-5.327-6.581Zm0 8.775a2.196 2.196 0 0 1-2.194-2.194c0-1.482 1.251-3.447 2.194-3.447.943 0 2.194 1.965 2.194 3.447 0 1.21-.984 2.194-2.194 2.194ZM27.054 37.74c-3.202 0-5.327 3.962-5.327 6.582a5.333 5.333 0 0 0 5.327 5.327 5.333 5.333 0 0 0 5.328-5.327c0-2.62-2.125-6.581-5.328-6.581Zm0 8.775a2.196 2.196 0 0 1-2.193-2.194c0-1.482 1.25-3.447 2.193-3.447.944 0 2.194 1.965 2.194 3.447 0 1.21-.984 2.194-2.194 2.194Z" fill="#A07B50"/><path d="M46.693 52.783h-1.776v-1.776a1.567 1.567 0 1 0-3.134 0v1.776h-1.776a1.567 1.567 0 1 0 0 3.133h1.776v1.776a1.567 1.567 0 1 0 3.134 0v-1.776h1.776a1.567 1.567 0 1 0 0-3.133Z" fill="#A07B50"/><path d="M62.197 3.268A47.623 47.623 0 0 0 47.528.972c-12.695 0-24.63 4.944-33.608 13.92C4.944 23.87 0 35.806 0 48.5c0 12.695 4.944 24.63 13.92 33.608 8.978 8.977 20.913 13.92 33.608 13.92a1.567 1.567 0 1 0 0-3.133c-11.858 0-23.006-4.618-31.391-13.003C7.752 71.507 3.134 60.358 3.134 48.5s4.618-23.006 13.003-31.392C24.522 8.723 35.67 4.106 47.528 4.106c4.692 0 9.302.721 13.705 2.144a1.581 1.581 0 0 0 1.973-1.009 1.582 1.582 0 0 0-1.01-1.973Z" fill="#A07B50"/><path d="m106.612 43.927-5.502-6.289a1.583 1.583 0 0 0-2.211-.147l-4.383 3.834a47.533 47.533 0 0 0-13.38-26.433 47.661 47.661 0 0 0-11.538-8.51 1.581 1.581 0 0 0-2.115.657 1.582 1.582 0 0 0 .657 2.116 44.546 44.546 0 0 1 10.78 7.953c7.486 7.486 11.923 16.992 12.83 27.488.108 1.252 1.645 1.874 2.593 1.044l5.439-4.76 3.439 3.931L91.03 55.48c-.972.85-2.467.85-3.439 0L75.4 44.81l3.439-3.93 5 4.375c1.057.925 2.752.03 2.588-1.362C84.108 24.188 67.385 9.328 47.528 9.328c-21.6 0-39.171 17.573-39.171 39.172 0 21.6 17.572 39.171 39.171 39.171a1.567 1.567 0 1 0 0-3.133C27.657 84.538 11.49 68.37 11.49 48.5c0-19.872 16.167-36.038 36.038-36.038 16.792 0 31.149 11.551 35.016 27.497l-2.82-2.468a1.583 1.583 0 0 0-2.211.147l-5.503 6.29a1.567 1.567 0 0 0 .147 2.21l13.371 11.7c2.139 1.87 5.428 1.87 7.566 0l13.371-11.7c.651-.57.717-1.56.147-2.21Z" fill="#A07B50"/><path d="M73.433 90.387h-11.63C66.983 86.532 75 79.362 75 71.898c0-5.471-4.452-9.923-9.924-9.923-5.472 0-9.923 4.452-9.923 9.923a1.567 1.567 0 1 0 3.133 0 6.797 6.797 0 0 1 6.79-6.79 6.797 6.797 0 0 1 6.79 6.79c0 9.023-15.794 18.617-15.953 18.712a1.582 1.582 0 0 0-.687 1.818 1.582 1.582 0 0 0 1.493 1.093h16.713a1.567 1.567 0 0 0 0-3.134Zm25.07-6.685h-3.447v-20.16c0-.642-.407-1.234-1.006-1.464a1.582 1.582 0 0 0-1.802.508L75.534 84.313c-.777 1.011-.031 2.522 1.242 2.522h15.147v5.119a1.567 1.567 0 1 0 3.133 0v-5.118h3.447a1.566 1.566 0 1 0 0-3.134Zm-6.58 0H79.957L91.923 68.15v15.553Z" fill="#A07B50"/><path d="M43.35 42.755c-7.085 0-12.849 5.764-12.849 12.848 0 6.475 4.804 10.342 12.849 10.342s12.848-3.866 12.848-10.342c0-7.084-5.764-12.848-12.848-12.848Zm0 20.055c-3.628 0-9.715-.936-9.715-7.207 0-5.357 4.358-9.715 9.715-9.715 5.356 0 9.715 4.358 9.715 9.715 0 6.271-6.087 7.207-9.715 7.207Zm-6.268-32.59c-3.202 0-5.327 3.96-5.327 6.58a5.333 5.333 0 0 0 5.327 5.328 5.333 5.333 0 0 0 5.328-5.327c0-2.62-2.125-6.581-5.328-6.581Zm0 8.774A2.196 2.196 0 0 1 34.89 36.8c0-1.482 1.25-3.447 2.193-3.447.944 0 2.194 1.965 2.194 3.447 0 1.21-.984 2.194-2.194 2.194Zm12.535-8.774c-3.202 0-5.327 3.96-5.327 6.58a5.333 5.333 0 0 0 5.327 5.328 5.333 5.333 0 0 0 5.328-5.327c0-2.62-2.125-6.581-5.328-6.581Zm0 8.774a2.196 2.196 0 0 1-2.193-2.194c0-1.482 1.25-3.447 2.193-3.447.943 0 2.194 1.965 2.194 3.447 0 1.21-.984 2.194-2.194 2.194Zm10.028-1.254c-3.203 0-5.327 3.962-5.327 6.582a5.333 5.333 0 0 0 5.327 5.327 5.333 5.333 0 0 0 5.327-5.327c0-2.62-2.124-6.581-5.327-6.581Zm0 8.775a2.196 2.196 0 0 1-2.194-2.194c0-1.482 1.251-3.447 2.194-3.447.943 0 2.194 1.965 2.194 3.447 0 1.21-.984 2.194-2.194 2.194ZM27.054 37.74c-3.202 0-5.327 3.962-5.327 6.582a5.333 5.333 0 0 0 5.327 5.327 5.333 5.333 0 0 0 5.328-5.327c0-2.62-2.125-6.581-5.328-6.581Zm0 8.775a2.196 2.196 0 0 1-2.193-2.194c0-1.482 1.25-3.447 2.193-3.447.944 0 2.194 1.965 2.194 3.447 0 1.21-.984 2.194-2.194 2.194Z" stroke="#1F1C1D" stroke-width="2" mask="url(#a)"/><path d="M46.693 52.783h-1.776v-1.776a1.567 1.567 0 1 0-3.134 0v1.776h-1.776a1.567 1.567 0 1 0 0 3.133h1.776v1.776a1.567 1.567 0 1 0 3.134 0v-1.776h1.776a1.567 1.567 0 1 0 0-3.133Z" stroke="#1F1C1D" stroke-width="2" mask="url(#a)"/><path d="M62.197 3.268A47.623 47.623 0 0 0 47.528.972c-12.695 0-24.63 4.944-33.608 13.92C4.944 23.87 0 35.806 0 48.5c0 12.695 4.944 24.63 13.92 33.608 8.978 8.977 20.913 13.92 33.608 13.92a1.567 1.567 0 1 0 0-3.133c-11.858 0-23.006-4.618-31.391-13.003C7.752 71.507 3.134 60.358 3.134 48.5s4.618-23.006 13.003-31.392C24.522 8.723 35.67 4.106 47.528 4.106c4.692 0 9.302.721 13.705 2.144a1.581 1.581 0 0 0 1.973-1.009 1.582 1.582 0 0 0-1.01-1.973Z" stroke="#1F1C1D" stroke-width="2" mask="url(#a)"/><path d="m106.612 43.927-5.502-6.289a1.583 1.583 0 0 0-2.211-.147l-4.383 3.834a47.533 47.533 0 0 0-13.38-26.433 47.661 47.661 0 0 0-11.538-8.51 1.581 1.581 0 0 0-2.115.657 1.582 1.582 0 0 0 .657 2.116 44.546 44.546 0 0 1 10.78 7.953c7.486 7.486 11.923 16.992 12.83 27.488.108 1.252 1.645 1.874 2.593 1.044l5.439-4.76 3.439 3.931L91.03 55.48c-.972.85-2.467.85-3.439 0L75.4 44.81l3.439-3.93 5 4.375c1.057.925 2.752.03 2.588-1.362C84.108 24.188 67.385 9.328 47.528 9.328c-21.6 0-39.171 17.573-39.171 39.172 0 21.6 17.572 39.171 39.171 39.171a1.567 1.567 0 1 0 0-3.133C27.657 84.538 11.49 68.37 11.49 48.5c0-19.872 16.167-36.038 36.038-36.038 16.792 0 31.149 11.551 35.016 27.497l-2.82-2.468a1.583 1.583 0 0 0-2.211.147l-5.503 6.29a1.567 1.567 0 0 0 .147 2.21l13.371 11.7c2.139 1.87 5.428 1.87 7.566 0l13.371-11.7c.651-.57.717-1.56.147-2.21Z" stroke="#1F1C1D" stroke-width="2" mask="url(#a)"/><path d="M73.433 90.387h-11.63C66.983 86.532 75 79.362 75 71.898c0-5.471-4.452-9.923-9.924-9.923-5.472 0-9.923 4.452-9.923 9.923a1.567 1.567 0 1 0 3.133 0 6.797 6.797 0 0 1 6.79-6.79 6.797 6.797 0 0 1 6.79 6.79c0 9.023-15.794 18.617-15.953 18.712a1.582 1.582 0 0 0-.687 1.818 1.582 1.582 0 0 0 1.493 1.093h16.713a1.567 1.567 0 0 0 0-3.134Zm25.07-6.685h-3.447v-20.16c0-.642-.407-1.234-1.006-1.464a1.582 1.582 0 0 0-1.802.508L75.534 84.313c-.777 1.011-.031 2.522 1.242 2.522h15.147v5.119a1.567 1.567 0 1 0 3.133 0v-5.118h3.447a1.566 1.566 0 1 0 0-3.134Zm-6.58 0H79.957L91.923 68.15v15.553Z" stroke="#1F1C1D" stroke-width="2" mask="url(#a)"/></svg>